<mxfile host="app.diagrams.net" modified="2020-05-14T13:47:21.688Z" agent="5.0 (Macintosh; Intel Mac OS X 10_15_3) AppleWebKit/537.36 (KHTML, like Gecko) Chrome/81.0.4044.138 Safari/537.36" etag="zpEFXhgIUYdZZQYG_dSW" version="13.0.7" type="github">
  <diagram id="AunSN8jirUo4fQzF3bQ8" name="Page-1">
    <mxGraphModel dx="946" dy="552" grid="1" gridSize="10" guides="1" tooltips="1" connect="1" arrows="1" fold="1" page="1" pageScale="1" pageWidth="827" pageHeight="1169" math="0" shadow="0">
      <root>
        <mxCell id="0" />
        <mxCell id="1" parent="0" />
        <mxCell id="mqvseYgeadqSDyIu-_Aa-3" value="" style="edgeStyle=orthogonalEdgeStyle;rounded=0;orthogonalLoop=1;jettySize=auto;html=1;" parent="1" source="mqvseYgeadqSDyIu-_Aa-1" target="mqvseYgeadqSDyIu-_Aa-2" edge="1">
          <mxGeometry relative="1" as="geometry" />
        </mxCell>
        <mxCell id="mqvseYgeadqSDyIu-_Aa-7" value="" style="edgeStyle=orthogonalEdgeStyle;rounded=0;orthogonalLoop=1;jettySize=auto;html=1;" parent="1" source="mqvseYgeadqSDyIu-_Aa-1" target="mqvseYgeadqSDyIu-_Aa-2" edge="1">
          <mxGeometry relative="1" as="geometry" />
        </mxCell>
        <mxCell id="mqvseYgeadqSDyIu-_Aa-9" value="" style="edgeStyle=orthogonalEdgeStyle;rounded=0;orthogonalLoop=1;jettySize=auto;html=1;" parent="1" source="mqvseYgeadqSDyIu-_Aa-1" target="mqvseYgeadqSDyIu-_Aa-8" edge="1">
          <mxGeometry relative="1" as="geometry">
            <Array as="points">
              <mxPoint x="410" y="470" />
            </Array>
          </mxGeometry>
        </mxCell>
        <mxCell id="mqvseYgeadqSDyIu-_Aa-1" value="&lt;b&gt;Styregruppe&lt;/b&gt;&lt;br&gt;Investor" style="rounded=0;whiteSpace=wrap;html=1;" parent="1" vertex="1">
          <mxGeometry x="350" y="380" width="120" height="60" as="geometry" />
        </mxCell>
        <mxCell id="mqvseYgeadqSDyIu-_Aa-8" value="&lt;b&gt;Referencegruppe&lt;/b&gt;&lt;br&gt;Testgruppe, brugere" style="rounded=0;whiteSpace=wrap;html=1;" parent="1" vertex="1">
          <mxGeometry x="490" y="440" width="120" height="60" as="geometry" />
        </mxCell>
        <mxCell id="mqvseYgeadqSDyIu-_Aa-5" value="" style="edgeStyle=orthogonalEdgeStyle;rounded=0;orthogonalLoop=1;jettySize=auto;html=1;" parent="1" source="mqvseYgeadqSDyIu-_Aa-2" target="mqvseYgeadqSDyIu-_Aa-4" edge="1">
          <mxGeometry relative="1" as="geometry" />
        </mxCell>
        <mxCell id="mqvseYgeadqSDyIu-_Aa-2" value="&lt;b&gt;Projektleder&lt;/b&gt;&lt;br&gt;Christopher&lt;br&gt;Josefine&lt;br&gt;Niklas" style="rounded=0;whiteSpace=wrap;html=1;" parent="1" vertex="1">
          <mxGeometry x="350" y="490" width="120" height="60" as="geometry" />
        </mxCell>
        <mxCell id="mqvseYgeadqSDyIu-_Aa-4" value="&lt;b&gt;Projektgruppe&lt;/b&gt;&lt;br&gt;Udvikler, tester" style="rounded=0;whiteSpace=wrap;html=1;" parent="1" vertex="1">
          <mxGeometry x="350" y="585" width="120" height="60" as="geometry" />
        </mxCell>
      </root>
    </mxGraphModel>
  </diagram>
</mxfile>
